<?xml version="1.0" encoding="UTF-8"?>
<svg id="Layer_2" data-name="Layer 2" xmlns="http://www.w3.org/2000/svg" viewBox="0 0 103.81 126.02">
  <defs>
    <style>
      .cls-1 {
        fill: #fff;
        stroke-width: 0px;
      }
    </style>
  </defs>
  <g id="Layer_2-2" data-name="Layer 2">
    <path class="cls-1" d="M0,126.02V0h62.06c24.67,0,37.96,13.29,37.96,34.35,0,10.82-6.64,19.93-15.37,23.53,10.63,3.99,19.17,12.53,19.17,30.56,0,22.96-15.37,37.58-47.07,37.58H0ZM25.43,21.83v27.33h33.21c10.44,0,15.94-4.75,15.94-13.67,0-9.68-5.12-13.66-17.46-13.66h-31.69ZM58.83,104.57c12.15,0,19.36-7.78,19.36-18.03,0-11.01-7.21-15.94-18.98-15.94H25.43v33.97h33.4Z"/>
  </g>
</svg>