<svg width="246" height="412" viewBox="0 0 246 412" fill="none" xmlns="http://www.w3.org/2000/svg">
<g clip-path="url(#clip0_53_3)">
<path d="M245.658 -0.185593H-0.418213V360.308H245.658V-0.185593Z" fill="#005A67"/>
<path d="M217.029 231.624C214.906 211.053 202.491 201.078 177.053 201.078C153.435 201.078 141.02 209.539 141.02 224.661C141.02 237.36 149.797 244.626 172.218 250.06C194.927 255.509 217.045 260.943 231.886 267.603C249.456 275.459 263.387 287.871 263.387 316.298C263.387 360.451 230.067 380.114 183.133 380.114C133.455 380.114 98.9378 358.045 98.0282 312.983H138.61C139.216 333.554 156.483 346.254 183.437 346.254C208.268 346.254 222.502 335.674 222.502 317.827C222.502 306.036 216.438 297.862 191.304 292.428C166.473 286.979 150.419 283.362 136.184 277.004C114.689 267.332 102.56 252.816 102.56 227.401C102.56 191.422 127.088 165.704 176.16 165.704C227.035 165.704 255.504 193.223 257.02 231.624H217.029Z" fill="white"/>
<path d="M-41 183.232V-17.5697H58.0369C97.4058 -17.5697 118.614 3.60672 118.614 37.1639C118.614 54.4047 108.018 68.9206 94.0865 74.6569C111.05 81.0146 124.678 94.6223 124.678 123.352C124.678 159.936 100.151 183.232 49.563 183.232H-41ZM-0.418189 17.2145V60.7624H52.5791C69.2395 60.7624 78.0166 53.1937 78.0166 38.9804C78.0166 23.5562 69.83 17.2145 50.1535 17.2145H-0.418189ZM52.8823 149.053C72.2716 149.053 83.7775 136.657 83.7775 120.324C83.7775 102.781 72.2716 94.9251 53.4888 94.9251H-0.418189V149.053H52.8823Z" fill="white"/>
<path d="M-24.946 396V360.308L79.5486 230.269H-21.9139V195.198H132.243V228.166L27.1417 360.308H132.243V396H-24.946Z" fill="white"/>
<path d="M136.259 153.802V-47H178.357V117.217H278V153.802H136.259Z" fill="white"/>
<path d="M16.8342 396.16C15.9542 396.16 15.0942 396.04 14.2542 395.8C13.4276 395.547 12.7809 395.213 12.3142 394.8L13.0742 393.28C13.5276 393.64 14.0942 393.94 14.7742 394.18C15.4542 394.407 16.1676 394.52 16.9142 394.52C17.8742 394.52 18.5476 394.367 18.9342 394.06C19.3209 393.74 19.5142 393.367 19.5142 392.94C19.5142 392.567 19.3876 392.273 19.1342 392.06C18.8942 391.833 18.5676 391.66 18.1542 391.54C17.7409 391.407 17.2876 391.287 16.7942 391.18C16.3142 391.073 15.8276 390.953 15.3342 390.82C14.8542 390.687 14.4076 390.507 13.9942 390.28C13.5942 390.053 13.2676 389.747 13.0142 389.36C12.7609 388.96 12.6342 388.46 12.6342 387.86C12.6342 387.18 12.8209 386.587 13.1942 386.08C13.5676 385.573 14.0942 385.18 14.7742 384.9C15.4542 384.62 16.2676 384.48 17.2142 384.48C17.9076 384.48 18.5942 384.56 19.2742 384.72C19.9542 384.867 20.5409 385.113 21.0342 385.46L20.3342 387.02C19.8542 386.687 19.3342 386.453 18.7742 386.32C18.2276 386.187 17.6876 386.12 17.1542 386.12C16.2476 386.12 15.5876 386.28 15.1742 386.6C14.7742 386.907 14.5742 387.287 14.5742 387.74C14.5742 388.113 14.7009 388.413 14.9542 388.64C15.2076 388.853 15.5342 389.027 15.9342 389.16C16.3476 389.28 16.8009 389.393 17.2942 389.5C17.7876 389.607 18.2742 389.727 18.7542 389.86C19.2342 389.993 19.6809 390.173 20.0942 390.4C20.5076 390.627 20.8342 390.933 21.0742 391.32C21.3276 391.693 21.4542 392.173 21.4542 392.76C21.4542 393.453 21.2676 394.053 20.8942 394.56C20.5342 395.067 20.0076 395.46 19.3142 395.74C18.6342 396.02 17.8076 396.16 16.8342 396.16ZM55.9639 396V386.24H52.0839V384.64H61.7839V386.24H57.9039V396H55.9639ZM98.6672 396.16C97.6272 396.16 96.7339 395.967 95.9872 395.58C95.2405 395.18 94.6672 394.607 94.2672 393.86C93.8805 393.1 93.6872 392.193 93.6872 391.14V384.64H95.6272V391.1C95.6272 392.207 95.8872 393.047 96.4072 393.62C96.9405 394.193 97.7005 394.48 98.6872 394.48C99.6739 394.48 100.427 394.2 100.947 393.64C101.481 393.067 101.747 392.22 101.747 391.1V384.64H103.647V391.14C103.647 392.193 103.447 393.1 103.047 393.86C102.661 394.607 102.094 395.18 101.347 395.58C100.601 395.967 99.7072 396.16 98.6672 396.16ZM137.401 396V384.64H142.341C143.621 384.64 144.728 384.873 145.661 385.34C146.608 385.807 147.334 386.467 147.841 387.32C148.361 388.173 148.621 389.173 148.621 390.32C148.621 391.467 148.361 392.467 147.841 393.32C147.334 394.173 146.608 394.833 145.661 395.3C144.728 395.767 143.621 396 142.341 396H137.401ZM139.341 394.38H142.261C143.194 394.38 143.988 394.22 144.641 393.9C145.294 393.567 145.794 393.093 146.141 392.48C146.488 391.867 146.661 391.147 146.661 390.32C146.661 389.48 146.488 388.76 146.141 388.16C145.794 387.547 145.294 387.073 144.641 386.74C143.988 386.407 143.194 386.24 142.261 386.24H139.341V394.38ZM181.444 396V384.64H183.384V396H181.444ZM222.365 396.16C221.191 396.16 220.138 395.907 219.205 395.4C218.271 394.893 217.531 394.2 216.985 393.32C216.451 392.427 216.185 391.42 216.185 390.3C216.185 389.193 216.451 388.2 216.985 387.32C217.531 386.44 218.271 385.747 219.205 385.24C220.138 384.733 221.191 384.48 222.365 384.48C223.551 384.48 224.605 384.733 225.525 385.24C226.458 385.747 227.191 386.44 227.725 387.32C228.271 388.2 228.545 389.193 228.545 390.3C228.545 391.42 228.271 392.427 227.725 393.32C227.191 394.2 226.458 394.893 225.525 395.4C224.605 395.907 223.551 396.16 222.365 396.16ZM222.365 394.48C223.178 394.48 223.898 394.3 224.525 393.94C225.165 393.58 225.665 393.087 226.025 392.46C226.398 391.82 226.585 391.107 226.585 390.32C226.585 389.507 226.398 388.793 226.025 388.18C225.665 387.553 225.165 387.06 224.525 386.7C223.898 386.34 223.178 386.16 222.365 386.16C221.565 386.16 220.845 386.34 220.205 386.7C219.565 387.047 219.058 387.533 218.685 388.16C218.325 388.787 218.145 389.507 218.145 390.32C218.145 391.107 218.325 391.82 218.685 392.46C219.058 393.087 219.565 393.58 220.205 393.94C220.845 394.3 221.565 394.48 222.365 394.48Z" fill="black" fill-opacity="0.8"/>
</g>
<defs>
<clipPath id="clip0_53_3">
<rect width="246" height="412" fill="white"/>
</clipPath>
</defs>
</svg>
