<?xml version="1.0" encoding="UTF-8"?>
<svg id="Layer_2" data-name="Layer 2" xmlns="http://www.w3.org/2000/svg" viewBox="0 0 103.62 134.56">
  <defs>
    <style>
      .cls-1 {
        fill: #fff;
        stroke-width: 0px;
      }
    </style>
  </defs>
  <g id="Layer_2-2" data-name="Layer 2">
    <path class="cls-1" d="M74.59,41.37c-1.33-12.91-9.11-19.17-25.05-19.17-14.8,0-22.58,5.31-22.58,14.8,0,7.97,5.5,12.53,19.55,15.94,14.23,3.42,28.09,6.83,37.39,11.01,11.01,4.93,19.74,12.72,19.74,30.56,0,27.71-20.88,40.05-50.29,40.05-31.12,0-52.76-13.85-53.33-42.13h25.43c.38,12.91,11.2,20.88,28.09,20.88,15.56,0,24.48-6.64,24.48-17.84,0-7.4-3.8-12.53-19.55-15.94-15.56-3.42-25.62-5.69-34.54-9.68-13.47-6.07-21.07-15.18-21.07-31.12C2.85,16.13,18.22,0,48.97,0s49.72,17.27,50.67,41.37h-25.05Z"/>
  </g>
</svg>