<svg width="247" height="363" viewBox="0 0 247 363" fill="none" xmlns="http://www.w3.org/2000/svg">
<path fill-rule="evenodd" clip-rule="evenodd" d="M247 0H0V21.0109H24.3884V52.5924L53.0397 21.0109H85.0543L50.1631 59.4383L80.5375 99.8753L115.012 21.0109H143.913L182.031 108.21H151.636L145.795 93.0126H112.632L106.791 108.21H86.7982H76.8939H52.7905L30.9315 79.3479L24.3884 86.618V108.21H0V151.052C0.961855 149.939 1.98363 148.873 3.06533 147.853C7.46682 143.784 12.6157 140.67 18.5121 138.511C24.4915 136.268 30.9691 135.147 37.9451 135.147C46.4989 135.147 54.0562 136.642 60.6169 139.632C67.2607 142.621 72.7418 146.94 77.0602 152.587L58.4992 169.155C55.9247 165.916 53.0596 163.425 49.9038 161.681C46.8311 159.854 43.3431 158.94 39.4399 158.94C36.3672 158.94 33.5851 159.438 31.0937 160.435C28.6023 161.431 26.4431 162.885 24.616 164.795C22.872 166.705 21.5018 169.03 20.5052 171.771C19.5086 174.428 19.0104 177.418 19.0104 180.74C19.0104 184.062 19.5086 187.093 20.5052 189.834C21.5018 192.491 22.872 194.775 24.616 196.685C26.4431 198.595 28.6023 200.048 31.0937 201.045C33.5851 202.041 36.3672 202.54 39.4399 202.54C43.3431 202.54 46.8311 201.668 49.9038 199.924C53.0596 198.097 55.9247 195.564 58.4992 192.325L77.0602 208.893C72.7418 214.457 67.2607 218.775 60.6169 221.848C54.0562 224.838 46.4989 226.333 37.9451 226.333C30.9691 226.333 24.4915 225.253 18.5121 223.094C12.6157 220.852 7.46682 217.696 3.06533 213.627C1.98363 212.607 0.961855 211.541 0 210.428V252.116H29.3742V316.519H68.7384V339.017L106.727 252.116H135.627L173.746 339.315H143.35L137.509 324.117H104.346L98.505 339.315H68.7384H68.608H0V362.188H247V274.912H222.391V339.315H192.993V274.912H167.456V252.116H247V213.662C242.636 217.654 237.503 220.756 231.603 222.969C225.623 225.212 219.062 226.333 211.92 226.333C204.861 226.333 198.301 225.212 192.238 222.969C186.259 220.727 181.068 217.571 176.667 213.502C172.265 209.35 168.819 204.491 166.328 198.927C163.919 193.363 162.715 187.301 162.715 180.74C162.715 174.096 163.919 168.034 166.328 162.553C168.819 156.988 172.265 152.172 176.667 148.102C181.068 143.95 186.259 140.753 192.238 138.511C198.301 136.268 204.861 135.147 211.92 135.147C219.062 135.147 225.623 136.268 231.603 138.511C237.503 140.723 242.636 143.866 247 147.939V83.9138C241.708 85.8273 235.61 86.7841 228.704 86.7841H216.122V108.21H186.723V21.0109H228.704C235.61 21.0109 241.708 21.9677 247 23.8812V0ZM120.928 280.976L129.37 302.94H112.486L120.928 280.976ZM216.122 64.1123H226.835C230.904 64.1123 233.894 63.1988 235.804 61.3717C237.797 59.5447 238.794 57.0533 238.794 53.8975C238.794 50.7417 237.797 48.2503 235.804 46.4233C233.894 44.5962 230.904 43.6827 226.835 43.6827H216.122V64.1123ZM137.656 71.8357L129.214 49.8716L120.772 71.8357H137.656ZM95.6679 223.841C102.478 225.502 109.537 226.333 116.845 226.333C125.897 226.333 133.413 225.004 139.392 222.346C145.372 219.606 149.856 216.035 152.846 211.633C155.919 207.149 157.455 202.249 157.455 196.934C157.455 192.366 156.583 188.546 154.839 185.474C153.095 182.401 150.77 179.909 147.863 177.999C145.039 176.089 141.925 174.553 138.52 173.39C135.115 172.228 131.669 171.314 128.181 170.65C124.776 169.985 121.62 169.362 118.713 168.781C115.89 168.2 113.606 167.494 111.862 166.663C110.118 165.75 109.246 164.546 109.246 163.051C109.246 162.054 109.578 161.141 110.243 160.31C110.99 159.48 112.194 158.816 113.855 158.317C115.516 157.819 117.758 157.57 120.582 157.57C124.402 157.57 128.305 158.11 132.292 159.189C136.361 160.269 140.555 161.888 144.873 164.047L153.718 142.746C149.15 140.171 144.001 138.261 138.271 137.016C132.541 135.77 126.727 135.147 120.831 135.147C111.862 135.147 104.346 136.476 98.2839 139.133C92.3045 141.791 87.7785 145.362 84.7057 149.846C81.716 154.248 80.2212 159.148 80.2212 164.546C80.2212 169.196 81.0932 173.1 82.8372 176.255C84.5811 179.328 86.8649 181.82 89.6885 183.73C92.5952 185.64 95.751 187.176 99.1559 188.339C102.644 189.501 106.09 190.456 109.495 191.204C112.9 191.868 116.014 192.533 118.838 193.197C121.745 193.778 124.07 194.526 125.814 195.439C127.558 196.353 128.43 197.598 128.43 199.176C128.43 200.173 128.056 201.045 127.309 201.792C126.561 202.457 125.357 202.997 123.696 203.412C122.118 203.744 119.918 203.91 117.094 203.91C112.277 203.91 107.294 203.204 102.146 201.792C97.0797 200.297 92.4706 198.346 88.3183 195.938L78.8509 217.364C83.2524 220.021 88.8581 222.18 95.6679 223.841ZM219.519 201.045C217.194 202.041 214.661 202.54 211.92 202.54C209.18 202.54 206.605 202.041 204.197 201.045C201.872 200.048 199.796 198.637 197.969 196.81C196.225 194.899 194.854 192.616 193.858 189.958C192.861 187.218 192.363 184.145 192.363 180.74C192.363 177.335 192.861 174.304 193.858 171.646C194.854 168.906 196.225 166.622 197.969 164.795C199.796 162.885 201.872 161.431 204.197 160.435C206.605 159.438 209.18 158.94 211.92 158.94C214.661 158.94 217.194 159.438 219.519 160.435C221.928 161.431 224.004 162.885 225.748 164.795C227.575 166.622 228.987 168.906 229.983 171.646C230.98 174.304 231.478 177.335 231.478 180.74C231.478 184.145 230.98 187.218 229.983 189.958C228.987 192.616 227.575 194.899 225.748 196.81C224.004 198.637 221.928 200.048 219.519 201.045Z" fill="#005A67"/>
</svg>
