<svg id="Layer_1" data-name="Layer 1" xmlns="http://www.w3.org/2000/svg" viewBox="0 0 180 180"><defs><style>.cls-1{fill:#005a67;}.cls-2{fill:#fff;}</style></defs><rect class="cls-1" width="180" height="180"/><path class="cls-2" d="M30.2,166.13V13.87h75C135,13.87,151,29.92,151,55.37a30.8,30.8,0,0,1-18.57,28.44c12.84,4.81,23.16,15.13,23.16,36.92,0,27.74-18.58,45.4-56.87,45.4ZM60.92,40.24v33h40.13c12.62,0,19.27-5.73,19.27-16.51,0-11.69-6.2-16.51-21.1-16.51Zm40.36,100c14.68,0,23.39-9.4,23.39-21.79,0-13.3-8.71-19.26-22.93-19.26H60.92v41.05Z"/></svg>